<?xml version="1.0" encoding="utf-8"?>
<!DOCTYPE svg PUBLIC "-//W3C//DTD SVG 1.1//EN" "http://www.w3.org/Graphics/SVG/1.1/DTD/svg11.dtd">
<!-- Generated by geo2svg 2.3.2. https://d3js.org/d3-geo-projection/ -->
<svg version="1.1" xmlns="http://www.w3.org/2000/svg" xmlns:xlink="http://www.w3.org/1999/xlink" width="960" height="960" viewBox="0 0 960 960" fill="none">
  <path d="M567.2,378.1L567.2,378.1M567.8,368L567.8,368M566.2,368.6L566.2,368.6M557.1,309L557.1,309M546.1,373.7L546.1,373.7M543.7,376.7L543.7,376.7M540.1,321.5L542.5,321.3L540.4,321.3L540.1,321.5M455.9,828.5L454.6,825.2L452.2,825.3L451.4,822.9L450.2,823.2L448.9,819.6L449.8,818.2L448.9,816.7L452,812.5L453,810.3L451.9,808.5L452,804.6L454.4,801L453.5,799.4L454.7,796.8L453.4,794.4L453.4,791.5L452.4,788.3L453.2,786.5L452.5,785.3L453.5,782.6L455.6,780.7L456.1,778.8L454.9,775.5L453.7,775.2L453.7,773.1L452.4,771.7L451.7,768.8L453.1,766.6L450.7,766.6L420.1,766.4L412.7,766.2L412.8,758.7L413.1,728.5L413.6,699.2L444.7,699.1L469.6,699.1L486.9,699.4L492.4,699.3L493,701.2L492.8,704L489.7,706.8L489.1,709.2L489.6,713.9L488.3,716.1L487.7,720.9L486.7,722.8L487.4,725.1L486.3,725.5L488.4,729L492.7,726.9L494.3,723.2L499,722.2L501.3,722.2L504.1,718.6L507.1,718.9L514.3,716L518.2,718.8L519.8,718.5L520.2,720.2L522.4,721.8L525.3,720.9L527.1,722.1L529,722L527.9,723.9L528.2,726.7L526.8,726.3L524.8,728.4L528.1,731.1L530.2,734.6L529.6,736L531.1,739.4L530.4,746.7L530.6,750L533.2,749.9L534.5,752.6L535.3,756.5L536.7,757.7L535.6,759.5L533.2,759.8L531.7,761.6L531.4,766.2L532.2,771.8L531.7,774.4L531.9,778.4L533.4,778L533.2,828.9M562.3,363.6L563.5,363.6L563.5,365.5L563.2,365.8L563.5,365.5L564,366.1L563.5,366.1L563.2,366.1L562.3,366.4L562.3,366.1L562.3,363.6M725,357.5L725.3,387.2L724.4,387.2L689.5,387.7L661,388.2L630.9,388.7L628.1,388.7L601.8,388.4L599.3,388.4L596.8,388.4L593.2,388.4L585.4,388.5L582.8,388.5L582,388.5L571.3,388.5L569.5,388.5L567.1,388.5L564.6,388.5L563.8,388.5L562.2,388.5L562.2,388.5L559.7,388.5L558.2,388.5L556,388.5L549.1,388.5L548,388.5L547.3,388.3L547.3,386.8L547.3,386L547.4,383.5L547.4,381L547.4,379L547.4,378.5L547.4,377.9L547.4,377.6L547.4,377.3L549.9,377.9L551.1,377.8L549.9,376.1L550.5,375.4L550,373.5L550.2,373.5L551.1,372.9L552.4,372.3L552.4,369.2L553.6,369.5L553.8,372.3L554.5,371L556.1,371.1L557.8,371.1L558.6,372.3L559.8,372.1L560.3,373.6L562.3,373.6L563.5,373.6L563.5,374.8L565.9,376L565.9,378.5L567.5,378.6L569.6,378.5L569.6,375.9L570.3,373.6L570.6,373.6L570.8,375.1L573.3,373.5L574.5,372.5L572.1,372.3L572.1,370.5L571.5,369.9L570.9,369.9L570.4,371.7L569,371.6L567.2,371.1L567.2,369.5L566.8,369.2L567.2,368.1L567.2,369.2L569.1,368.6L568.4,366.7L567.2,367.4L567.2,365.8L570.9,365.9L570.9,366.1L572.1,366.1L572.1,364.8L572.1,363.6L571.5,363.8L570.9,361.1L569.7,359.9L569.7,359.1L569.7,358.6M565.5,371.1L564.7,371.1L565.5,371.1M563.7,371.1L563.5,371.1L563.7,371.1M214.2,823.4L214.7,809.3L215.2,786.7L215.2,786.6L216.2,751.1L255.7,752L264.4,752.3L264.2,757.5L275.1,757.8L299.3,758.1L321.2,758.1L321.2,756.7L325.7,756.9L325.1,786.9L336.1,792.8L337,802.2L350.4,823.9L352,827.5M816.9,825.3L816.1,795.1L815.9,760L817,759.9L815.9,715.1L846.2,714.3L860.5,714.1L865.2,713.9L888.7,713.3L927.3,712.1L956.4,711.1M815.9,715.1L771.3,716L770.8,685.3L771.3,685.3L770.8,647.8L769.9,609.5L823.7,608.2L858.5,607.3L859.3,636.5L860.7,683.1L859.6,683.3L860.5,714.1M545.1,321.3L543.6,321.1L546.8,318.5L547.5,321.3L545.1,321.3M532.6,328.8L523.1,328.7L513.1,328.8L502.2,328.9L502.2,325.2L499.4,326.2L496.6,324.5L494.3,325.6L465.6,325.4L463.4,323.8L464.4,320.9L463.8,318.9L464.7,314.7L463.8,314.4L463.9,311.2L467.6,311L468.8,309.7L470.3,307.9L470.8,306L469.4,303.2L471.1,301L471.3,294.4L472.4,292L471.2,288.8L467,286.6L466.6,282L465.7,281.4L465.7,279.1L468.3,271L470.2,271L469,269.1L481,269L493.6,269.5L503.3,269.8L505.4,269.2L510.5,269.2L516.6,269L523.4,269.2L533.7,269.3L547.3,269.2L547.2,279.2L547.2,284.2L547.2,288L547.2,288L547.2,299.1L547.2,302.2L547.2,302.8L547.2,311.6L547.2,314.1L547.5,314.1L547.5,317.9L546.8,318.3L542.8,321.3L545,321.4L544.4,323.8L542.5,323.8L542.5,325L538.9,325.6L538.9,323.8L540.1,322.6L538.6,322.4L540.1,321.6L538.5,322.3L537.6,321.9L537.6,324.4L536.4,324.4L536.4,326.3L535.1,326.3L535.1,328.9L532.6,328.8M547.5,328.8L547.5,328.8L545,330L545,331.3L543.9,331.3L543.9,331.3L541.3,330.9L540.2,328.8L535.1,328.9L535.1,331.2L537.5,331.2L537.5,332.5L537.5,332.9L532.7,332.7L532.7,329.4L535.1,328.9M547.5,314.1L549.6,314L553.3,314L553.4,312.8L555.8,312.8L554.6,311.6L554.6,309.7L557.1,309.1L557.2,306.6L559.6,306.5L559.5,314M429,526.8L427.7,528.8L428.3,530.4L427.9,533.4L425.8,535.2L424.7,537.3L427.9,537.9L428.1,538.9L430.5,539.7L430.5,542.1L432.9,544.6L431.8,548.3L435.6,549.8L436.7,552.3L436.4,554.4L435.2,555.7L434.8,558.1L435.7,560.1L433.3,562.3L432.5,569.6L428.6,570L418.7,579.6L417.6,578.2L412.3,577.8L412.4,579.9L409.9,583.4L408.3,583.6L386.9,583.3L387.2,580.5L384.4,580L381.4,576.5L381.2,574.5L379.5,573.9L378.4,570.8L375.9,571L373.6,567.7L374.3,566.2L372.8,564.1L372.9,561.3L374.2,558.1L372.1,553.6L371.5,550L368.9,548.4L369.6,546.1L366.8,545.8L366.7,544.8L364.7,544.9L363,543.8L361.7,537.6L360.2,535.6L361.3,533.8L363.8,533.7L364.9,531L364.7,524.1L365.5,521.9L365.4,518.5L364.4,516.9L365.3,514.1L366.5,513.3L367.8,514.4L369.6,514.1L371.5,511.8L372.2,509.3L374.3,509L374.4,507.3L377.3,504.4L378.2,502.1L377.5,499.5L375,500.1L373.4,499.1L370.9,499.6L370.3,496.8L367.4,499.4L364.8,496.3L362.7,498.6L359,499.3L356.9,497.8L353.8,494.7L353.7,493.4L350.7,490.7L351.6,489.2L350.8,487.1L347.6,484.8L347.3,483.9L344.3,485.3L341.8,485.1L341.4,484L342.5,479.4L341.4,477.8L341.8,475.9L344,475.3L344.4,473.7L385,474.6L395.9,474.9L397,477.9L395.7,479.4L395.6,481.5L397.3,482.6L398.7,486L401.8,484.9L406.7,486.8L407.3,489L406,492.3L406.3,494.9L409.7,495L412.3,496.3L413.3,494.7L417.4,494.5L421.8,499.4L422.9,498.8L424.4,500.2L425.6,501L423.8,502.9L424.4,505L428.8,504.5L431,506.8L428.6,510.1L428.7,512.2L433.3,518L432.2,520.8L430.2,522.4L430.2,523.5L428.2,524.6L429,526.8M950.3,544.9L912.8,546.1L895.5,546.7L888.1,547.1L867.6,547.7L851.1,547.9L819,548.6L799.3,549.4L799.1,536.1L800.2,536.1L799.1,476.6L814,475.9L823.8,475.7L855,474.8L858.6,475L881.4,474L899.3,472.9L904.9,472.5L947.7,470.9M325.7,756.9L351.6,757.7L351.6,758.1L370.3,758.1L412.8,758.7M184.9,471.6L186.3,472.4L190,468.6L192.2,468.8L193.5,466.2L196.6,465.2L197.8,463L200.7,460.9L200.4,460.1L203.7,456L209.7,452.2L213.3,449.5L216.6,449.5L216.5,447.4L221.1,443.7L222.3,443.5L220.3,515.2L219.7,537.6L173.1,536.3L153,535.6L153,535.6L140,535.1L102.2,533.8L103.2,506.2L123.3,498.6L130.6,495.9L132,494.8L133.9,495L135.5,493.8L135,492.2L136,490.8L137.7,491.2L139.7,489L143,483.9L142,481.8L145.4,479L147.7,476.1L150.1,475.7L150.7,474L156.8,469.8L157.5,468.6L161.6,468.8L168.4,468L171.7,467.2L174,465.7L176.5,466.3L182.8,469.3L184.9,471.6M547.4,377.3L547.4,376L546.6,376L547.4,377.6M547.4,377.9L547.4,378.5M577.5,358.6L574.6,358.6L574.6,358.6L572.2,358.6L569.7,358.6L569.7,358L569.7,357.4L570.3,356.2L572.1,356.1L574.6,356.1L573.4,355.5L573.4,353.8L577.1,353.7L577.1,353.1L579.5,353L584.5,352.4L584.5,353.2L587,353.6L589.4,353.6L589.4,351.5L589.4,348.6L585.7,348.6L585.7,344.4L598.4,344.4L598.4,345.9L599.8,345.9L599.8,344.5L603.5,343.7L604.5,343.7L604.5,335.6L606.3,335.6L607,334.2L607,331.2L606.2,331.2L602.6,331.3L602.6,330.1L596.5,330L596.5,328.7L594.8,328.7L594.9,330L593.2,330.1L593.2,331.4L589.8,331.4L589.7,340.6L585.8,340.6L585.7,341.2L582,341.2L582,348.7L579.5,348.7L578.2,348.7L576.1,348.7L574.6,348.7L572.1,348.7L572.1,346.2L569.7,346.2L569.7,348.7L567.2,348.7L567.2,351.1L564.7,351.2L564.1,349.9L562.4,349.9L560.3,349.3L558.6,349.9L558.9,349.4L555.9,349.9L554.8,349.9L553.6,349.9L551.2,349.4L551.2,349.9L547.5,349.9L547.5,348L547.5,344.6L547.5,343.7L547.5,342.5L547.5,341.2L547.4,338.8L547.5,338.7L547.5,338.6L547.5,338.1L547.5,337.5L547.5,336.5L547.5,333.8L547.5,331.3L547.5,328.8L550,328.8L549.9,327.6L552.4,327.6L552.4,326.4L552.4,323.9L554.8,323.8L552.2,322.2L552.4,321.4L552.4,317.3L554.8,317.3L554.8,319.5L556,319.5L556.1,317.3L556.1,316.4L557,314.1L559.5,314L562.2,314L564.7,314L569.4,314L577.1,314L577.8,314L578.6,314L581.1,314L584.5,314L586.3,314L591.7,314L591.9,314L606.5,313.9L631.3,313.7L666,313.4L703.4,312.9L713.1,312.8L724.4,312.6L725,357.5L689.9,357.8L658.7,358.4L636.2,358.7L630.8,358.8L619.4,358.8L609.5,358.6L606.8,358.6L584.5,358.6L583.4,358.6L582,358.6L579.5,358.6L579.5,358.6L577.5,358.6M547.4,379L546.8,380.2L542.4,380.2L542.4,379.5L545.9,379.5L542.4,378L542.4,378.5L540.1,378.5L540,376.6L542.4,376L542.5,376L543.7,376L544.8,376L545,374.8L546.9,373.6L545,372.4L543.7,372L543.7,371.1L543.7,370.7L545.6,371.1L547.4,371.1L546.2,369.8L546.8,368.6L547.4,368.6L547.4,367.3L547.4,366.1L547.4,365L547.4,363.6L547.4,362.4L547.4,361.1L547.4,359.5L547.5,358.6L547.5,358L547.5,357.4L547.5,356.1L547.5,355.5L547.5,353.6L547.5,352.4L547.5,351.2L546.2,351.2L547.5,349.9M7.4,664.8L37.2,666.2L37.9,663.7L97.6,666.4L113.7,666.9L114.7,669.5L116.1,670.1L117.4,675.8L119.3,677.8L119.5,679.7L121,679.2L124.3,677.9L128.9,678.1L132.9,674.3L135.8,677L139.1,675.2L140.1,677L141.8,675.3L144,674.6L149.6,674.6L151.9,678.9L154.7,678.4L156.4,680.7L158.6,680.6L160.8,683.4L162.4,684.3L163.2,687.3L164.9,687.2L166.6,689.1L165.2,691.2L166.3,692.4L164.4,695.3L164.6,698.1L160.8,698.6L159.4,699.7L156.8,700.2L155.8,701.3L153.7,700.5L151.5,702.2L150.5,704.3L151.3,705.1L152.8,710.3L151,711.9L132.2,711.4L125,711.7L91.4,711.1L56.4,709.4L52.5,709.6L22.3,708.2L4,732.6M599.3,388.4L599.3,396L599.2,406L599.1,411L599.1,423.4L599.2,448.3L599.3,463.2L585.5,463.3L585.1,463.3L572.6,463.3L566.4,463.3L550.5,463.3L550,463.3L533.5,463.3L510.7,463.2L511.5,460.6L512.5,460.5L512.8,458.2L516.3,454.7L516.9,451.2L517.8,450L520,449.3L519.5,446.3L520.9,443.7L523.4,443.2L523.3,441.8L525.6,440.7L525.2,439.5L527.3,434.1L530.3,429L529.6,428.2L532.4,423.3L531.5,420.8L532.7,418.5L531.8,415.6L536.2,413L538.1,411L538,407.5L536.6,404.8L537.7,403.5L542.1,401.9L544.1,397.8L543.9,395.8L544.7,392.2L546,390.5L548,388.5M393.7,393.3L392.6,393.4L391,390.4L389.5,391L388.4,393.1L388.4,395.2L389.6,396.5L387.8,399.6L389.4,400.2L388.8,404.6L390.6,406.5L392.5,410.1L391.2,411.3L391.8,413.3L395.2,416.4L394.6,419.4L392,419.3L388.6,423L387.6,422.3L384.3,424.4L381.7,422.3L376.9,422.6L375.3,423.5L372.8,422.3L371.5,419.6L368.9,418.8L365.4,422L354.4,421.7L327.4,421.3L292.9,419.9L281.6,419.6L274.4,419.4L274.5,413.4L274.6,410L274.8,398.7L275.4,375.2L275.4,375.2L276.6,324.7L287.1,324.9L313,325.5L328.3,325.5L340.6,326.1L340.6,325L365.9,325.5L365.1,326.6L366.4,328.2L366.6,332.8L366,335.6L366.8,339.1L368.5,341.9L370.5,348.6L371.6,349.3L371.9,352.6L374.5,355.1L377.4,354.1L379.7,358.5L383.3,360.8L384.2,363.6L387.9,364.7L387.5,366.4L388.5,367.8L391,367.8L391.5,370.9L393.6,371L393.8,372.2L398.2,372.7L399.2,375.5L398.9,380.1L397.9,381.2L395.9,380.5L394.5,382.8L393.9,385.8L395.1,388.8L396.3,389L394.8,390.5L393.7,393.3M724.4,387.2L725.3,462.3L724.6,462.3L724.8,484.8L725.4,507.1L706.3,507.3L690.5,507.2L680.6,507.3L680.7,495L680.6,462.9L670.8,462.9L649,463.1L620.3,463.1L614.1,463.2L608.5,463.2L599.3,463.2M680.6,507.3L680.8,522.2L681.4,537.2L681.2,539.4L681.4,566.7L693.7,566.4L705.7,566.5L726.3,566.2L740.6,565.9L740.6,566.7L755.1,566.7L755.3,596.6L756,596.5L756.2,609.8L755.1,610L755.5,625.7L745.5,625.8L740.7,626.1L740.8,636L733.5,636.2L723.5,636.3L716,636.5L714.8,635.6L711.6,636.5L710.2,634.7L707.1,633.9L705.9,634.6L702.8,634.5L702.6,633L701.4,634.3L699.7,633.7L698.3,634.7L696.4,634.1L692.8,633.5L692.9,632.3L690.1,631L686.3,632L683,632L681.5,631.1L681.3,611.5L681.8,611.3L681.4,566.7L638.3,567.4L606.5,567.7L592.3,567.8L590.1,567.8L563.5,567.7L562.3,567.9L562.2,559.6L562.2,545.5L562.2,537.6L562.6,535.1L562.6,521.2L562.6,520.3L550.4,520.3L544.8,519.9L544.8,518.9L545.6,507.9L550.6,508L550.8,493.7L550.8,493L550.5,485.6L550.8,482.2L550.8,478.4L550,463.3M424.7,537.3L460.5,537.5L483.3,537.4L487.8,537.3L510.4,537.3L522.6,537.4L522.4,540.8L522.3,545.9L529,545.9L539.8,545.9L544.9,545.8L547.2,545L549.7,545.3L562.2,545.5M447.2,611L474.8,611.2L504.8,612.3L516.9,612.5L537.6,612.8L547.8,612.7L548,635L547.6,637.4L547.7,659.3L547.7,671.4L545.9,671.1L545.5,666.5L543,664.5L542.6,665.7L539.8,666.6L537.4,665.2L536.8,661.6L535.6,659.5L533.9,658.2L534.5,656L531.7,653.6L528.2,655.6L527.8,658.2L525.5,660.2L525.3,661.9L522.2,663.3L519.1,667.6L519,669.6L517.4,672.7L515.9,674.1L514.3,672.4L513,668.4L511.6,667.3L509,668.2L507.5,669.7L503.4,671.2L498.5,675.5L494.9,674.3L490.4,674.5L486.5,669.9L485.3,667.1L482.3,664.4L478.7,664.9L475.3,661.7L475.8,660.9L472.8,655.1L473.8,654.3L472.9,651.3L472.1,651.1L471,647.5L469.6,646.7L469.8,645.1L465.9,640.8L465.2,639.3L465,636.2L463.2,631.5L463.7,629.3L460,627.5L455.2,620.6L452.5,618.9L452.5,617.9L448.1,614.6L447.2,611L444.2,609.5L441,606.1L440.5,606.6L436.5,602.2L433.7,596.3L430.8,593.3L427.5,591.3L427.1,589.3L422.2,584.3L420.5,584.1L418.4,580.7L418.7,579.6M562.3,567.9L562.4,585.3L562.4,593.2L562.4,599L562.4,599.1L562.5,612.6L547.8,612.7M20,360.1L40.5,361L40.4,362.8L85.4,364.7L85.6,358.2L85.7,357.2L117.8,358.3L130.1,358.9L130.1,358.7L152.1,359.4L166.9,360.1L166.9,358.8L167.7,337.7L187.6,338.3L199.8,337.8L215.1,338.5L228.5,339L234.4,339.1L234.8,323.8L249.6,324.7L249.9,309.5L250.2,309.5L250.6,294.6L287.3,295.3L287,310.5L287.6,310.5L287.4,321.4L287.1,324.9M274.4,419.4L243.3,418.7L232.9,418.4L232.3,418.3L189.6,417.1L172.3,416.6L135.6,415.3L102.6,414.1L81.4,413.2L41,411.5L17.7,410.4M502.2,328.9L502,357.3M463.6,339.1L462.9,337.5L462.4,332.3L463.6,331.4L464.3,328.2L465.6,325.4M432.5,365.1L433,363.2L434.7,360.4L438,358.6L438.4,354.8L436.9,350.5L437.6,348.4L441.9,348.5L442.3,349.9L446.1,350.4L449.2,347.4L451.1,347.5L453.6,348.8L456.8,347.2L459.1,344.7L460.6,341.5L462.8,341.4L463.6,339.1L465.3,339.9L467.5,339.4L471.1,340.6L471.9,342.6L475.1,345L478.4,344.3L478.3,347.2L480.2,348.1L482.5,350.4L482.3,351.3L482.6,352.7L487.5,354.3L494.5,355.8L498.8,356L499,357.5L500.9,356.6L502,357.3L502,357.6L501.9,362.5L501.9,376.4L501.7,385.6L501.7,388.4L495.7,388.4L476.8,387.9L472,388L459.1,388.2L444.8,388.2L443.7,386.8L445.3,385.6L447.7,385L448.7,383.4L452,381.1L451.1,377.3L449.8,376L446.6,376.4L446.1,374.9L442.4,374.6L440.3,370.6L437.7,372.3L436.1,371L434.3,371.4L432.2,369.5L433.1,366L432.5,365.1L429.7,366.8L429,365.7L423,367.5L419,366.3L417.6,362.7L414.9,360.5L414.1,354.3L412,349.7L411.7,346.4L405.5,339.9L403.2,340.6L400.3,339.6L396.5,336.3L395.7,334L394.7,333.8L392.5,330L389.9,327.6L384.2,326.8L384.2,327.6L371,327.4L371,325.6L365.9,325.5M340.6,325L340.9,312.2L339.5,311.8L340.1,281.4L340.6,281.5L341.2,253.6L338.5,253.5L338.7,245.4L338.9,235.8L340.7,238L342.6,238.1L341.8,240.3L343.1,242.7L343.9,247.1L345.4,247.8L346.2,246.5L351.2,247.6L351.7,248.9L354.5,249.5L355.1,246.5L357.3,245L360,241.9L361.5,243.1L361.1,245.7L361.9,246L364,249.7L364,251.5L365.9,253.2L368.5,252.2L371,253.5L372.9,253.4L375.5,251.4L377.6,251.5L379.8,254.6L381.8,255L383,256.2L384.6,256.2L385.4,255L384.8,252.9L385.8,251.5L387.5,252.3L389.1,251L391,254.5L393.7,257.5L395.4,256.6L398,257.2L400.3,255.8L401,254.3L402.6,254.4L404.3,256.2L406.2,255.6L410.8,252.4L412.1,253.2L412.6,253.7L416.7,252L419.2,250L421.4,249.3L422.4,251.3L425.6,250.9L428.7,253.8L429.8,251.7L431.9,250.7L430.8,248.8L433.8,246.1L434.3,244.6L436.3,245.1L437.3,241.9L436.6,239.3L437.4,236.6L437.2,233.7L438.2,231.8L442,231.2L443,230.2L447.2,231.9L449,232.2L449.4,236.8L448,239L448.1,241.4L451.2,245.3L451.2,247.4L454.2,252L456.8,254.1L458.3,254.3L459.2,256.2L461.3,257.9L462.8,258.1L462.7,260.2L464.8,261.8L465.2,267L469,269.1M222.3,443.5L224.1,442.2L224.6,440.6L225.8,441.7L229,441.5L231.9,439.6L231.8,437.1L235.8,437.9L236.6,437.3L239.6,440.3L238.5,441.6L238.2,445.3L238.9,447.4L240.9,449.7L241.7,451.7L246.3,453.2L249.3,455.2L250.9,461.3L279.6,462L283.5,466.2L285.7,467.2L288.7,470.7L289.7,470.4L289.5,473.7L287.9,475.3L288.6,476.7L292.9,477.8L292.8,479.6L295.4,480.2L296.7,481.7L299.3,482.9L300.2,484.1L303.7,484.2L304.5,481.7L306.4,481.3L308.3,485.2L310.9,486.8L314.6,486.6L316.2,485.8L317,483.3L321.2,478.8L322,478.6L321.5,475.9L322.7,475.4L326.7,475.2L327.7,473.8L329.1,473.9L330.1,475.6L334,475.9L335.2,478.2L334.9,479.7L336.2,480.2L339.7,484.4L341.4,484M386.9,583.3L292.8,581.2L285.7,580.9L285.5,588.1L284.5,628.7L208.8,626.7L208,626.7L208.9,624.7L206.7,615.4L206.9,612.3L205.8,609.1L202.8,607L201.2,603.7L199.8,599.9L218,600.4L218.6,575.8L219.7,537.6M284.5,628.7L284,647.5L283.9,661.4L282.7,663L280.8,661.7L278.3,662.5L276.3,661.9L274.8,660.3L274.2,661.3L271.1,662.2L269.9,661.4L268.9,663.2L265.2,663.9L264.9,682.7L264.2,695L263.2,709L266,709.1L265.9,717.7L265.5,721.9L264.6,743.6L264.4,752.3M216.2,751.1L217.2,713.9L217.8,691.9L219.9,692.3L221.2,689.6L221.1,687.6L219.9,684.8L217,682.3L213.5,681.8L212.8,679.1L213.4,676.6L211.1,673.6L211.5,671L213.4,669L211.3,665.7L211.1,663.2L211.9,661.6L207.8,659.4L207.1,657.9L204.5,656.9L205.1,655.9L204.2,653.1L206.6,650.8L209.8,652.2L211.5,650.5L211.3,647.3L214,644.2L213.8,642.3L215.4,641.7L214.6,640.1L212.5,638.4L209.6,638.3L208.2,635L208.9,633L208.4,630L207.3,628.7L208,626.7M492.4,699.3L493.5,694.5L492.8,691.7L495.5,690.2L495.4,686.1L496.4,682.2L493.5,677.6L489.7,677.3L490.4,674.5M547.7,671.4L550.2,673.3L549.8,675L552.6,677.2L602.3,673.8L612.4,677.4L642.4,687.8L639.5,690.8L628.2,699.9L628.4,701.1L615.9,723.6L615.9,729.6L606.1,737.3L605.2,740.6L602.2,743.2L599.3,743.3L597.3,743.2L595.8,745L596.4,746.1L595.3,747.6L595.2,751L596,752.8L593.8,753.2L590.3,755.3L588.6,757.3L588.7,758.4L581.2,759.1L578.1,760.4L576.5,759.9L570.3,762.1L566.6,760.7L563.7,760.4L561.7,761.1L558.4,763.7L555.1,763.9L552.9,766.7L551.2,767.1L550.5,770L549.4,769.7L547.6,771.5L545.2,772.3L544.4,773.8L541.9,774.2L541.1,776.1L538.7,777.4L536.5,776.6L533.4,778M400.4,142L399.8,143.3L401.1,149.3L400.5,150.9L401,153L405.7,158.1L407.1,158.5L408.3,161.5L408.4,164.1L410.8,165.2L410.8,167.1L413.4,170.4L416.3,172.4L418.5,175.4L418.8,177.5L420.8,179.3L420.8,180.7L423.2,186.3L425,187.7L426.1,189.7L426,191.7L428.1,194.3L428.1,196.5L430.2,200.5L431.1,203.3L431,205.9L431.9,209L433.4,209.5L434.5,215.3L435.8,216.4L435.7,218.7L436.5,221.7L435.7,224L436.6,225.4L439.5,223.9L440.9,224.1L443.4,226.7L443,230.2M338.9,235.8L338.1,233.3L338.3,231.2L337.1,230.4L338.4,229.2L339,227.3L338.3,223.9L336.6,222.7L336.9,220.4L335.5,218.7L334,216.6L332.8,212.9L333.9,210.5L332.5,206.3L335.9,200.7L334.5,198.9L335.9,196.3L335.2,194.9L337.6,193L337.6,190.3L336.7,185.9L338.5,184.4L337.7,181.8L339.1,179.6L342,176.8L342.3,173L341.3,171.5L338.7,170.2L338.8,167.5L339.9,167.2L338.2,163.8L336.9,163.3L336,160.2L334.2,160.2L333.5,161.7L329,162.6L328.1,160.6L328.9,159.3L325.1,158L325.3,156.8L323.7,156.3L321.1,158.1L319.8,154.6L318.1,152.4L317.5,153.2L315,152.8L312.4,147.5L312.4,143.3L314.1,143.4L315,141.8L314.1,139.7M510.7,463.2L510.5,463.2L501.5,463.2L501.6,458.2L501.6,450.6L501.8,440L501.6,429.2L501.7,412.7L501.7,405.8L501.8,395.5L501.7,388.4M755.1,566.7L755.1,565.5L789.2,564.9L799.6,564.4L799.3,549.4M952.4,604.2L930,605.1L893.8,606.2L858.5,607.3M769.9,609.5L756.2,609.8M799.1,476.6L798.8,461.1L799.8,461L798.9,416.3L798.4,386L814.3,385.3L836.6,384.7L844.8,384.6L853.2,384.4L875.5,383.6L877.9,383.3L894,382.8L894.6,382.8L906.6,382.4L944.2,380.6M394.6,419.4L404,419.5L401.6,422.4L403.3,426.4L401.5,429.6L399.4,429.3L397.4,431.5L397.8,433.3L397,436.5L397.8,439.7L397.1,442.9L399.3,445L397.8,448.1L397.1,448.6L397.8,451.3L396.9,452.5L397.8,454.6L398.4,461L396.4,463.7L394.4,464.9L393.5,466.6L397.7,466.8L398.8,469.6L395.9,472.8L395.9,474.9M344.4,473.7L344.2,470.4L343.4,468.6L344.2,466.1L346.4,465.5L347.2,463.1L346.4,461L347.2,459.1L346.9,457L350.4,455.8L352.3,456.8L353.9,455.3L353.8,453.9L355.2,452.3L356,449.9L356.6,444.8L355.7,442.2L357.6,440.1L357.6,437.1L354.9,435L355.1,432.8L357.5,430.3L359.1,431L362.3,429.7L364.5,429.7L365.2,428.6L364.2,425.5L365.4,422M91.2,819.4L92.4,814.4L94.7,815.1L94.9,812.8L97.7,810.3L98,808L99.8,803L101.4,801.7L101.5,797.6L103.8,795.1L104.4,793.4L103.5,790.5L104.4,785.1L104.1,783L104.8,781.5L107.5,780.7L110.9,777.3L112.9,772.9L114.9,771L117.3,761.3L119,758.8L121.7,757.7L124.5,758.4L126.3,756.7L128.9,756.5L131,755.3L131.2,751.3L132.2,749.5L134.8,747.4L135.1,745.7L138.5,746.1L139.8,745.2L140.6,742.9L141.4,741.5L141,734.9L141.7,733.8L141.6,729.9L142.9,728.7L144,724.1L143.9,721L144.6,718.3L147.7,715.8L148.6,714.3L150.6,713.5L151,711.9L156.9,712L180.8,712.7L181.8,712.9L202.3,713.5L217.2,713.9M561.8,143L561.8,179.8L561.8,202.1L561.8,204.6L561.7,214.5L561.7,224.5L561.8,231.9L561.8,232.9L561.8,232.9L561.7,244.3L561.6,254.3L556.9,254.2L547.1,254.2L547.2,259.3L547.3,263.2L547.3,269.2M642.4,687.8L681.9,701.7L682.1,701.8L682.4,717.2L724.2,716.8L771.3,716M725.3,387.2L753.9,386.9L782.5,386.2L798.4,386M858,138.3L858.7,158.4L859.5,181.6L859.7,189.1L857.9,189.2L858.2,205L859.1,234.9L844.1,235.3L804.5,236.5L785.9,237L766.5,237.5L754.7,237.6L754.2,222.7L739.3,222.9L739,192.3L739.8,192.3L739.5,169.6L739.3,159.9L739,140.9M232.3,418.3L232.3,421.4L229.5,424.5L227.4,425.8L229.3,428.8L231,428.1L231.1,429.7L234.3,431.1L236.3,430.6L236.8,433.3L238.6,434L238.7,435.2L236.6,437.3M102.2,533.8L101,562.6L73.6,561.5L9.7,558.8M283.9,661.4L285.7,659.2L288.3,658.3L291.2,661.9L294.8,659.7L297.8,659.7L300.3,660.9L300.2,662.8L302,665.5L304.5,668.1L307.5,668.3L310.7,669.2L313.7,672.5L314.4,674.1L316.7,675L319.3,673.8L322.3,676.6L325.1,676.4L325,680.7L325,682.9L324.5,697.5L324.2,712.2L322,712.2L321.2,756.7M254.6,138.2L253.3,207.3L246.2,207.1L245.8,207.1L245.6,217L238.1,216.8L238,219.5L237.5,234.2L236.7,252.3L235.3,252.3L235.2,271.4L235.2,271.9L227.8,271.8L207.2,270.5L207.1,270.6L192.7,270.3L154.2,269.2L133.5,268.5L119.1,267.9L24.4,263.8M199.8,599.9L199.9,594.7L180.1,594.1L167.6,593.6L133.1,592.6L133.1,594.5L134.2,595.8L136.7,595.8L136.6,600.9L139,601L138.9,602.4L138.8,605.9L148.9,606.3L148.9,607.5L152.6,607.6L152.5,610.1L155,610.1L155,611.4L157.4,611.5L158.7,612.8L158.3,620.5L157,620.5L157,624.2L154.5,624.1L146.1,623.8L106,622.4L79.6,621.2L77.1,621.2L34.1,619.2L9.5,618.3M666,313.4L665.6,261.2L665.6,261.1L665.4,253.5L665.8,253.4L665.8,238.5L665.5,223.7L695.5,223.4L724.4,223.4L739.3,222.9M754.7,237.6L754.9,242.4L755,252.4L754.2,252.4L754.3,271.5L755.1,312.1L724.4,312.6M681.9,701.7L681.6,686.6L681.8,686.6L681.5,640.2L681.5,631.1M207.1,657.9L197.2,657.6L196.9,662.4L197.5,665.2L193.9,668L190.5,668.2L189.6,669.8L188,669.5L183.9,667.4L184.6,664.9L184.4,662.9L182.7,659.2L181.1,658L178.7,657.7L176.6,652.9L172.6,652.9L169.4,652L170.4,650.6L169.5,649.3L164.8,649.3L163.8,646.3L162.6,646L163.9,643.1L163.9,638.1L164.3,630.7L156.2,630.4L156.3,625.4L154.5,625.4L154.5,624.1M404,419.5L406,420L409.1,419.8L414.5,423.3L418,423.1L419.6,422.1L419.5,419.4L421.4,417.7L422.9,416L428.4,413.8L428,411.8L426.5,409.7L429.5,409.3L430.2,406.3L433.8,406.6L435.1,405.3L436.4,401.9L438.1,402L440.2,398.9L441.5,398.5L440.1,396.7L440.5,394.4L442.8,394.8L445.6,394.2L446.6,390.4L444.8,388.2M510.5,463.2L510.6,492.3L510.5,509.9L510.4,537.3M859.5,181.6L894.4,180.6L904.3,180.4L937.4,179.2M939.1,232.3L894,233.7L884,234.1L859.1,234.9M235.2,271.4L277.5,272.2L287.8,272.5L287.3,295.3M325,682.9L339.4,683.3L339.3,698.2L346.6,698.2L388.6,698.9L413.6,699.2M166.6,689.1L169.3,689.4L171.9,685.8L171.1,683L174.5,680.9L175.5,681.3L177.2,677.3L178,676.7L177.7,673.6L178.8,673.4L181.3,671.1L181.3,669.9L183.9,667.4M844.1,235.3L844.4,250.3L842.7,250.3L843.3,272.9L843.6,290.2L844.2,310.1L842.9,310.1L844,339.5L844.3,358.4L844.8,384.6M453.1,766.6L473.2,745.7L487,731.4L488.4,729"></path>
</svg>
